<svg width="20" height="20" viewBox="0 0 20 20" fill="none" xmlns="http://www.w3.org/2000/svg">
<path d="M14.5 0.885986C12.76 0.885986 11.09 1.69599 10 2.97599C8.91 1.69599 7.24 0.885986 5.5 0.885986C2.42 0.885986 0 3.30599 0 6.38599C0 10.166 3.4 13.246 8.55 17.926L10 19.236L11.45 17.916C16.6 13.246 20 10.166 20 6.38599C20 3.30599 17.58 0.885986 14.5 0.885986ZM10.1 16.436L10 16.536L9.9 16.436C5.14 12.126 2 9.27599 2 6.38599C2 4.38599 3.5 2.88599 5.5 2.88599C7.04 2.88599 8.54 3.87599 9.07 5.24599H10.94C11.46 3.87599 12.96 2.88599 14.5 2.88599C16.5 2.88599 18 4.38599 18 6.38599C18 9.27599 14.86 12.126 10.1 16.436Z" fill="black"/>
</svg>
