<svg width="27" height="27" viewBox="0 0 27 27" fill="none" xmlns="http://www.w3.org/2000/svg">
<path d="M22.9726 1.24536H3.74657C2.22968 1.24536 1 2.47504 1 3.99193V23.2179C1 24.7348 2.22968 25.9645 3.74657 25.9645H22.9726C24.4895 25.9645 25.7192 24.7348 25.7192 23.2179V3.99193C25.7192 2.47504 24.4895 1.24536 22.9726 1.24536Z" stroke="#424242" stroke-width="2" stroke-linecap="round" stroke-linejoin="round"/>
<path d="M8.55306 10.8584C9.69073 10.8584 10.613 9.93612 10.613 8.79845C10.613 7.66079 9.69073 6.73853 8.55306 6.73853C7.4154 6.73853 6.49313 7.66079 6.49313 8.79845C6.49313 9.93612 7.4154 10.8584 8.55306 10.8584Z" stroke="#424242" stroke-width="2" stroke-linecap="round" stroke-linejoin="round"/>
<path d="M25.7192 17.7248L18.8527 10.8584L3.74658 25.9645" stroke="#424242" stroke-width="2" stroke-linecap="round" stroke-linejoin="round"/>
</svg>
