<?xml version="1.0" encoding="iso-8859-1"?>
<!-- Generator: Adobe Illustrator 19.0.0, SVG Export Plug-In . SVG Version: 6.00 Build 0)  -->
<svg version="1.1" id="Layer_1" xmlns="http://www.w3.org/2000/svg" xmlns:xlink="http://www.w3.org/1999/xlink" x="0px" y="0px"
	 viewBox="0 0 512 512" style="enable-background:new 0 0 512 512;" xml:space="preserve">
<g>
	<g>
		<g>
			<path style="fill:#231F20;" d="M436.783,0H75.217C64.314,0,55.476,8.839,55.476,19.741v472.518
				c0,10.902,8.839,19.741,19.741,19.741h361.567c10.902,0,19.741-8.839,19.741-19.741V19.741C456.524,8.839,447.686,0,436.783,0z
				 M94.957,39.482h322.085V294.76l-62.267-67.895c-6.17-6.725-16.141-8.345-24.125-3.921l-75.047,41.628l-105.625-53.8
				c-8.157-4.154-18.101-2.156-24.019,4.827l-31.002,36.584V39.482z M417.044,472.517H94.957V313.249l51.023-60.207l101.06,51.475
				c5.849,2.978,12.795,2.857,18.537-0.328l70.62-39.172l80.847,88.155V472.517z"/>
			<path style="fill:#231F20;" d="M141.021,173.34h229.96c10.902,0,19.741-8.839,19.741-19.741V85.544
				c0-10.902-8.839-19.741-19.741-19.741h-229.96c-10.902,0-19.741,8.839-19.741,19.741V153.6
				C121.28,164.502,130.117,173.34,141.021,173.34z M160.762,105.285H351.24v28.574H160.762V105.285z"/>
			<path style="fill:#231F20;" d="M254.202,344.844H141.021c-10.902,0-19.741,8.839-19.741,19.741s8.839,19.741,19.741,19.741
				h113.181c10.902,0,19.741-8.839,19.741-19.741C273.943,353.682,265.104,344.844,254.202,344.844z"/>
			<path style="fill:#231F20;" d="M254.202,403.398H141.021c-10.902,0-19.741,8.839-19.741,19.741s8.839,19.741,19.741,19.741
				h113.181c10.902,0,19.741-8.839,19.741-19.741S265.104,403.398,254.202,403.398z"/>
		</g>
	</g>
</g>
<g>
</g>
<g>
</g>
<g>
</g>
<g>
</g>
<g>
</g>
<g>
</g>
<g>
</g>
<g>
</g>
<g>
</g>
<g>
</g>
<g>
</g>
<g>
</g>
<g>
</g>
<g>
</g>
<g>
</g>
</svg>
